<svg xmlns="http://www.w3.org/2000/svg" width="100%" viewBox="0 0 300 300" height="60" xmlns:v="https://vecta.io/nano"><path fill="#101010" d="M1 128V1l140.419.421c1.731 9.046 3.106 17.672 4.365 25.576 62.632 1.869 103.47 32.085 124.106 90.206l26.798-4.268c-5.211-20.026-13.675-37.794-25.9-53.661-22.831-29.632-52.572-48.464-89.187-56.387-.958-.207-1.738-1.239-2.601-1.887h122l-.375 138.675c-9.171 2.099-17.968 3.585-26.291 4.991-1.779 62.418-32.085 103.211-90.296 123.894l4.225 26.678c1.749-.424 3.046-.652 4.288-1.052 57.69-18.549 93.33-57.232 106.442-116.524.289-1.305 1.321-2.446 2.007-3.663v127c-46.354 0-92.708 0-139.93-.256-1.956-9.565-3.045-18.875-4.084-27.762-62.779-1.641-103.663-31.889-124.536-90.149l-26.482 4.152c.112 1.141.081 1.805.252 2.413 7.255 25.877 20.185 48.531 39.376 67.338 24.721 24.226 54.331 38.554 88.861 42.456.905.102 1.698 1.184 2.544 1.809H1l.298-140.857c9.348-2.111 18.399-3.427 26.712-4.636 1.883-62.691 32.176-103.33 90.278-124.07l-4.121-26.472c-1.204.119-1.872.088-2.483.26-26.356 7.437-49.331 20.682-68.393 40.396C21.496 68.161 7.872 94.897 2.802 125.923c-.126.77-1.18 1.388-1.802 2.077m69.682 14.21c1.345-14.925 6.923-28.266 15.601-40.48L68.212 82.768c-29.892 34.526-33.203 91.045-3.435 130.08l19.007-18.054c-10.101-16.123-14.884-33.1-13.102-52.585m45.242 80.511l-13.302-7.708-18.818 17.957c34.245 30.563 94.759 32.076 130.33 3.361l-18.028-18.941c-25.86 15.663-52.176 17.968-80.182 5.331M111.948 50.38L87.457 62.857l18.739 19.694c31.984-18.845 62.916-17.835 93.444 2.499l19.332-18.375C185.8 42.34 150.763 36.376 111.948 50.38m138.09 141.093c14.571-36.922 10.1-71.57-12.123-104.641l-19.19 18.187c18.75 31.777 17.926 62.777-2.495 93.375l18.886 19.859 14.922-26.781z"/><path d="M137.469 301c-1.314-.625-2.108-1.706-3.013-1.809-34.53-3.902-64.14-18.23-88.861-42.456-19.191-18.807-32.121-41.461-39.376-67.338-.17-.608-.139-1.272-.252-2.413l26.482-4.152c20.873 58.259 61.757 88.508 124.536 90.149l3.616 27.762c-7.288.256-14.976.256-23.132.256zM1 128.469c.621-1.157 1.676-1.775 1.802-2.545 5.07-31.027 18.694-57.763 40.489-80.304 19.062-19.715 42.037-32.959 68.393-40.396.611-.172 1.279-.141 2.483-.26l4.121 26.472c-58.102 20.74-88.395 61.379-90.278 124.07l-26.712 4.168C1 149.646 1 139.292 1 128.469zm300 45.062c-.686 1.686-1.718 2.827-2.007 4.132-13.112 59.291-48.752 97.974-106.442 116.524-1.242.399-2.539.628-4.288 1.052l-4.225-26.678c58.211-20.683 88.517-61.476 90.296-123.894l26.291-4.522c.375 10.877.375 21.898.375 33.387zM178.531 1c1.332.647 2.112 1.679 3.07 1.887 36.615 7.923 66.356 26.755 89.187 56.387 12.225 15.866 20.69 33.635 25.9 53.661l-26.798 4.268c-20.635-58.121-61.473-88.336-124.106-90.206l-3.897-25.576C154.021 1 166.042 1 178.531 1z" fill="#fcfcfc"/><path fill="#fbfbfb" d="M70.592 142.653c-1.693 19.041 3.091 36.018 13.192 52.142l-19.007 18.054c-29.768-39.035-26.457-95.554 3.435-130.08l18.072 18.962c-8.678 12.214-14.256 25.555-15.691 40.923z"/><path fill="#fcfcfc" d="M116.273 222.868c27.658 12.491 53.974 10.186 79.834-5.478l18.028 18.941c-35.571 28.716-96.085 27.203-130.33-3.361l18.818-17.957 13.65 7.854z"/><path fill="#fbfbfb" d="M112.306 50.233c38.456-13.857 73.493-7.893 106.666 16.442L199.64 85.05c-30.528-20.333-61.459-21.344-93.444-2.499L87.457 62.857l24.849-12.624z"/><path fill="#fcfcfc" d="M249.91 191.834l-14.794 26.42-18.886-19.859c20.421-30.598 21.245-61.598 2.495-93.375l19.19-18.187c22.223 33.07 26.694 67.718 11.995 105.001z"/></svg>